<svg width="1476" height="520" viewBox="0 0 1476 520" fill="none" xmlns="http://www.w3.org/2000/svg">
<path d="M667.52 393V89.4H816.928V107.248H677.272L687.576 100.072V248.56L677.272 232H808.464V249.664H677.272L687.576 233.104V393H667.52ZM885.595 393V204.584H905.099V393H885.595ZM895.347 167.232C892.893 167.232 890.624 166.619 888.539 165.392C886.453 164.165 884.797 162.509 883.571 160.424C882.344 158.339 881.731 156.069 881.731 153.616C881.731 151.04 882.344 148.771 883.571 146.808C884.797 144.723 886.453 143.067 888.539 141.84C890.624 140.613 892.893 140 895.347 140C897.923 140 900.192 140.613 902.155 141.84C904.24 143.067 905.896 144.723 907.123 146.808C908.349 148.771 908.963 150.979 908.963 153.432C908.963 156.008 908.349 158.339 907.123 160.424C905.896 162.509 904.24 164.165 902.155 165.392C900.192 166.619 897.923 167.232 895.347 167.232ZM987.841 393V76.52H1007.35V393H987.841ZM1177.67 398.888C1157.92 398.888 1140.38 394.533 1125.05 385.824C1109.71 376.992 1097.69 365.155 1088.98 350.312C1080.27 335.347 1075.92 318.541 1075.92 299.896C1075.92 285.667 1078.43 272.419 1083.46 260.152C1088.62 247.885 1095.67 237.152 1104.62 227.952C1113.7 218.752 1124.13 211.576 1135.9 206.424C1147.8 201.272 1160.44 198.696 1173.81 198.696C1191.59 198.696 1207.66 202.805 1222.02 211.024C1236.49 219.12 1248.08 230.344 1256.79 244.696C1265.62 259.048 1270.47 275.424 1271.33 293.824C1271.33 295.051 1271.33 296.155 1271.33 297.136C1271.33 297.995 1271.27 299.037 1271.14 300.264H1095.06C1095.06 316.088 1098.61 330.195 1105.73 342.584C1112.84 354.973 1122.66 364.725 1135.17 371.84C1147.8 378.832 1162.15 382.328 1178.22 382.328C1193.56 382.328 1207.36 379.077 1219.62 372.576C1232.01 366.075 1242.01 356.875 1249.62 344.976L1264.34 353.256C1255.38 367.731 1243.3 378.955 1228.09 386.928C1213 394.901 1196.19 398.888 1177.67 398.888ZM1095.98 284.808H1251.82C1250.23 271.437 1245.81 259.539 1238.58 249.112C1231.34 238.685 1222.14 230.467 1210.98 224.456C1199.81 218.323 1187.55 215.256 1174.18 215.256C1160.56 215.256 1148.11 218.261 1136.82 224.272C1125.66 230.283 1116.46 238.563 1109.22 249.112C1101.99 259.539 1097.57 271.437 1095.98 284.808ZM1383.73 398.888C1368.28 398.888 1354.66 394.84 1342.88 386.744C1331.23 378.525 1322.34 366.933 1316.2 351.968L1327.98 342.216C1333.38 355.096 1340.92 365.155 1350.61 372.392C1360.42 379.629 1371.4 383.248 1383.55 383.248C1392.01 383.248 1399.86 381.469 1407.1 377.912C1414.34 374.232 1420.1 369.08 1424.4 362.456C1428.69 355.832 1430.84 347.92 1430.84 338.72C1430.84 330.501 1428.93 324.123 1425.13 319.584C1421.33 314.923 1415.75 310.936 1408.39 307.624C1401.03 304.312 1392.13 300.632 1381.71 296.584C1373.61 293.395 1365.7 289.837 1357.97 285.912C1350.37 281.864 1344.05 276.773 1339.02 270.64C1334.11 264.384 1331.66 256.472 1331.66 246.904C1331.66 237.704 1334.05 229.485 1338.84 222.248C1343.74 215.011 1350.43 209.307 1358.89 205.136C1367.48 200.843 1377.11 198.696 1387.78 198.696C1398.57 198.696 1408.45 201.211 1417.4 206.24C1426.48 211.147 1434.21 218.139 1440.59 227.216L1429.92 237.704C1419.86 221.757 1405.81 213.784 1387.78 213.784C1376.62 213.784 1367.54 216.789 1360.55 222.8C1353.56 228.811 1350.06 236.6 1350.06 246.168C1350.06 253.037 1352.02 258.68 1355.95 263.096C1360 267.389 1365.33 271.069 1371.96 274.136C1378.58 277.203 1385.88 280.269 1393.85 283.336C1405.26 287.629 1415.13 291.861 1423.48 296.032C1431.94 300.203 1438.44 305.539 1442.98 312.04C1447.64 318.419 1449.97 327.128 1449.97 338.168C1449.97 350.435 1447.09 361.168 1441.32 370.368C1435.68 379.445 1427.83 386.499 1417.77 391.528C1407.84 396.435 1396.49 398.888 1383.73 398.888Z" fill="black"/>
<g filter="url(#filter0_d)">
<g clip-path="url(#clip0)">
<rect x="4" width="512" height="512" rx="110" fill="white"/>
<path d="M334.478 333L185.522 333L81.5986 393L438.401 393L334.478 333Z" fill="#56B1E3"/>
<path d="M260 204L334.478 333L438.401 393L260 84V204Z" fill="url(#paint0_linear)"/>
<path d="M260 204L185.522 333L81.5986 393L260 84V204Z" fill="url(#paint1_linear)"/>
<g filter="url(#filter1_d)">
<path d="M185.522 333L260 204L334.478 333H185.522Z" fill="white"/>
<path fill-rule="evenodd" clip-rule="evenodd" d="M516 0H4V512H516V0ZM255.67 91.5C257.594 88.1666 262.406 88.1667 264.33 91.5L434.071 385.5C435.996 388.833 433.59 393 429.741 393H90.259C86.41 393 84.0044 388.833 85.9289 385.5L255.67 91.5Z" fill="white"/>
</g>
</g>
</g>
<defs>
<filter id="filter0_d" x="0" y="0" width="520" height="520" filterUnits="userSpaceOnUse" color-interpolation-filters="sRGB">
<feFlood flood-opacity="0" result="BackgroundImageFix"/>
<feColorMatrix in="SourceAlpha" type="matrix" values="0 0 0 0 0 0 0 0 0 0 0 0 0 0 0 0 0 0 127 0"/>
<feOffset dy="4"/>
<feGaussianBlur stdDeviation="2"/>
<feColorMatrix type="matrix" values="0 0 0 0 0 0 0 0 0 0 0 0 0 0 0 0 0 0 0.25 0"/>
<feBlend mode="normal" in2="BackgroundImageFix" result="effect1_dropShadow"/>
<feBlend mode="normal" in="SourceGraphic" in2="effect1_dropShadow" result="shape"/>
</filter>
<filter id="filter1_d" x="-6" y="-6" width="532" height="532" filterUnits="userSpaceOnUse" color-interpolation-filters="sRGB">
<feFlood flood-opacity="0" result="BackgroundImageFix"/>
<feColorMatrix in="SourceAlpha" type="matrix" values="0 0 0 0 0 0 0 0 0 0 0 0 0 0 0 0 0 0 127 0"/>
<feOffset dy="4"/>
<feGaussianBlur stdDeviation="5"/>
<feColorMatrix type="matrix" values="0 0 0 0 0 0 0 0 0 0 0 0 0 0 0 0 0 0 0.4 0"/>
<feBlend mode="normal" in2="BackgroundImageFix" result="effect1_dropShadow"/>
<feBlend mode="normal" in="SourceGraphic" in2="effect1_dropShadow" result="shape"/>
</filter>
<linearGradient id="paint0_linear" x1="260" y1="204" x2="334.5" y2="333" gradientUnits="userSpaceOnUse">
<stop stop-color="#E46E34"/>
<stop offset="1" stop-color="#F3BC50"/>
</linearGradient>
<linearGradient id="paint1_linear" x1="185.5" y1="333" x2="260" y2="204" gradientUnits="userSpaceOnUse">
<stop stop-color="#562E8E"/>
<stop offset="1" stop-color="#DE3C84"/>
</linearGradient>
<clipPath id="clip0">
<rect x="4" width="512" height="512" rx="110" fill="white"/>
</clipPath>
</defs>
</svg>
